<?xml version="1.0" encoding="utf-8" standalone="no"?>
<!DOCTYPE svg PUBLIC "-//W3C//DTD SVG 1.1//EN"
  "http://www.w3.org/Graphics/SVG/1.1/DTD/svg11.dtd">
<svg xmlns:xlink="http://www.w3.org/1999/xlink" width="851.4pt" height="313.776pt" viewBox="0 0 851.4 313.776" xmlns="http://www.w3.org/2000/svg" version="1.1">
 <metadata>
  <rdf:RDF xmlns:dc="http://purl.org/dc/elements/1.1/" xmlns:cc="http://creativecommons.org/ns#" xmlns:rdf="http://www.w3.org/1999/02/22-rdf-syntax-ns#">
   <cc:Work>
    <dc:type rdf:resource="http://purl.org/dc/dcmitype/StillImage"/>
    <dc:date>2026-10-02T00:17:35.425807</dc:date>
    <dc:format>image/svg+xml</dc:format>
    <dc:creator>
     <cc:Agent>
      <dc:title>Matplotlib v3.10.3, https://matplotlib.org/</dc:title>
     </cc:Agent>
    </dc:creator>
   </cc:Work>
  </rdf:RDF>
 </metadata>
 <defs>
  <style type="text/css">*{stroke-linejoin: round; stroke-linecap: butt}</style>
 </defs>
 <g id="figure_1">
  <g id="patch_1">
   <path d="M 0 313.776 
L 851.4 313.776 
L 851.4 0 
L 0 0 
z
" style="fill: #fcfcfb"/>
  </g>
  <g id="axes_1">
   <g id="patch_2">
    <path d="M 27.288 180.1728 
L 204.732 180.1728 
Q 209.196 180.1728 209.196 175.7376 
L 209.196 71.5104 
Q 209.196 67.0752 204.732 67.0752 
L 27.288 67.0752 
Q 22.824 67.0752 22.824 71.5104 
L 22.824 175.7376 
Q 22.824 180.1728 27.288 180.1728 
z
" clip-path="url(#pbcf8010616)" style="fill: #ffffff; stroke: #52514e; stroke-width: 1.4; stroke-linejoin: miter"/>
   </g>
   <g id="patch_3">
    <path d="M 210.082588 123.624 
Q 219.241792 123.624 226.835749 123.624 
" clip-path="url(#pbcf8010616)" style="fill: none; stroke: #52514e; stroke-width: 1.4; stroke-linecap: round"/>
    <path d="M 221.235749 120.824 
L 226.835749 123.624 
L 221.235749 126.424 
z
" clip-path="url(#pbcf8010616)" style="fill: #52514e; stroke: #52514e; stroke-width: 1.4; stroke-linecap: round"/>
   </g>
   <g id="patch_4">
    <path d="M 233.748 180.1728 
L 411.192 180.1728 
Q 415.656 180.1728 415.656 175.7376 
L 415.656 71.5104 
Q 415.656 67.0752 411.192 67.0752 
L 233.748 67.0752 
Q 229.284 67.0752 229.284 71.5104 
L 229.284 175.7376 
Q 229.284 180.1728 233.748 180.1728 
z
" clip-path="url(#pbcf8010616)" style="fill: #ffffff; stroke: #52514e; stroke-width: 1.4; stroke-linejoin: miter"/>
   </g>
   <g id="patch_5">
    <path d="M 416.542588 123.624 
Q 425.701792 123.624 433.295749 123.624 
" clip-path="url(#pbcf8010616)" style="fill: none; stroke: #52514e; stroke-width: 1.4; stroke-linecap: round"/>
    <path d="M 427.695749 120.824 
L 433.295749 123.624 
L 427.695749 126.424 
z
" clip-path="url(#pbcf8010616)" style="fill: #52514e; stroke: #52514e; stroke-width: 1.4; stroke-linecap: round"/>
   </g>
   <g id="patch_6">
    <path d="M 440.208 180.1728 
L 617.652 180.1728 
Q 622.116 180.1728 622.116 175.7376 
L 622.116 71.5104 
Q 622.116 67.0752 617.652 67.0752 
L 440.208 67.0752 
Q 435.744 67.0752 435.744 71.5104 
L 435.744 175.7376 
Q 435.744 180.1728 440.208 180.1728 
z
" clip-path="url(#pbcf8010616)" style="fill: #e8f0fb; stroke: #2a78d6; stroke-width: 1.4; stroke-linejoin: miter"/>
   </g>
   <g id="patch_7">
    <path d="M 623.002588 123.624 
Q 632.161792 123.624 639.755749 123.624 
" clip-path="url(#pbcf8010616)" style="fill: none; stroke: #52514e; stroke-width: 1.4; stroke-linecap: round"/>
    <path d="M 634.155749 120.824 
L 639.755749 123.624 
L 634.155749 126.424 
z
" clip-path="url(#pbcf8010616)" style="fill: #52514e; stroke: #52514e; stroke-width: 1.4; stroke-linecap: round"/>
   </g>
   <g id="patch_8">
    <path d="M 646.668 180.1728 
L 824.112 180.1728 
Q 828.576 180.1728 828.576 175.7376 
L 828.576 71.5104 
Q 828.576 67.0752 824.112 67.0752 
L 646.668 67.0752 
Q 642.204 67.0752 642.204 71.5104 
L 642.204 175.7376 
Q 642.204 180.1728 646.668 180.1728 
z
" clip-path="url(#pbcf8010616)" style="fill: #ffffff; stroke: #52514e; stroke-width: 1.4; stroke-linejoin: miter"/>
   </g>
   <g id="patch_9">
    <path d="M 440.208 299.3688 
L 617.652 299.3688 
Q 622.116 299.3688 622.116 294.9336 
L 622.116 221.1984 
Q 622.116 216.7632 617.652 216.7632 
L 440.208 216.7632 
Q 435.744 216.7632 435.744 221.1984 
L 435.744 294.9336 
Q 435.744 299.3688 440.208 299.3688 
z
" clip-path="url(#pbcf8010616)" style="fill: #ffffff; stroke: #2a78d6; stroke-width: 1.4; stroke-linejoin: miter"/>
   </g>
   <g id="patch_10">
    <path d="M 528.93 206.013714 
Q 528.93 210.387254 528.93 213.195546 
" clip-path="url(#pbcf8010616)" style="fill: none; stroke: #2a78d6; stroke-width: 1.4; stroke-linecap: round"/>
    <path d="M 531.73 207.595546 
L 528.93 213.195546 
L 526.13 207.595546 
z
" clip-path="url(#pbcf8010616)" style="fill: #2a78d6; stroke: #2a78d6; stroke-width: 1.4; stroke-linecap: round"/>
   </g>
   <g id="text_1">
    <!-- S1  Lure -->
    <g style="fill: #0b0b0b" transform="translate(91.505625 106.779187) scale(0.12 -0.12)">
     <defs>
      <path id="DejaVuSans-53" d="M 3425 4513 
L 3425 3897 
Q 3066 4069 2747 4153 
Q 2428 4238 2131 4238 
Q 1616 4238 1336 4038 
Q 1056 3838 1056 3469 
Q 1056 3159 1242 3001 
Q 1428 2844 1947 2747 
L 2328 2669 
Q 3034 2534 3370 2195 
Q 3706 1856 3706 1288 
Q 3706 609 3251 259 
Q 2797 -91 1919 -91 
Q 1588 -91 1214 -16 
Q 841 59 441 206 
L 441 856 
Q 825 641 1194 531 
Q 1563 422 1919 422 
Q 2459 422 2753 634 
Q 3047 847 3047 1241 
Q 3047 1584 2836 1778 
Q 2625 1972 2144 2069 
L 1759 2144 
Q 1053 2284 737 2584 
Q 422 2884 422 3419 
Q 422 4038 858 4394 
Q 1294 4750 2059 4750 
Q 2388 4750 2728 4690 
Q 3069 4631 3425 4513 
z
" transform="scale(0.015625)"/>
      <path id="DejaVuSans-31" d="M 794 531 
L 1825 531 
L 1825 4091 
L 703 3866 
L 703 4441 
L 1819 4666 
L 2450 4666 
L 2450 531 
L 3481 531 
L 3481 0 
L 794 0 
L 794 531 
z
" transform="scale(0.015625)"/>
      <path id="DejaVuSans-20" transform="scale(0.015625)"/>
      <path id="DejaVuSans-4c" d="M 628 4666 
L 1259 4666 
L 1259 531 
L 3531 531 
L 3531 0 
L 628 0 
L 628 4666 
z
" transform="scale(0.015625)"/>
      <path id="DejaVuSans-75" d="M 544 1381 
L 544 3500 
L 1119 3500 
L 1119 1403 
Q 1119 906 1312 657 
Q 1506 409 1894 409 
Q 2359 409 2629 706 
Q 2900 1003 2900 1516 
L 2900 3500 
L 3475 3500 
L 3475 0 
L 2900 0 
L 2900 538 
Q 2691 219 2414 64 
Q 2138 -91 1772 -91 
Q 1169 -91 856 284 
Q 544 659 544 1381 
z
M 1991 3584 
L 1991 3584 
z
" transform="scale(0.015625)"/>
      <path id="DejaVuSans-72" d="M 2631 2963 
Q 2534 3019 2420 3045 
Q 2306 3072 2169 3072 
Q 1681 3072 1420 2755 
Q 1159 2438 1159 1844 
L 1159 0 
L 581 0 
L 581 3500 
L 1159 3500 
L 1159 2956 
Q 1341 3275 1631 3429 
Q 1922 3584 2338 3584 
Q 2397 3584 2469 3576 
Q 2541 3569 2628 3553 
L 2631 2963 
z
" transform="scale(0.015625)"/>
      <path id="DejaVuSans-65" d="M 3597 1894 
L 3597 1613 
L 953 1613 
Q 991 1019 1311 708 
Q 1631 397 2203 397 
Q 2534 397 2845 478 
Q 3156 559 3463 722 
L 3463 178 
Q 3153 47 2828 -22 
Q 2503 -91 2169 -91 
Q 1331 -91 842 396 
Q 353 884 353 1716 
Q 353 2575 817 3079 
Q 1281 3584 2069 3584 
Q 2775 3584 3186 3129 
Q 3597 2675 3597 1894 
z
M 3022 2063 
Q 3016 2534 2758 2815 
Q 2500 3097 2075 3097 
Q 1594 3097 1305 2825 
Q 1016 2553 972 2059 
L 3022 2063 
z
" transform="scale(0.015625)"/>
     </defs>
     <use xlink:href="#DejaVuSans-53"/>
     <use xlink:href="#DejaVuSans-31" transform="translate(63.476562 0)"/>
     <use xlink:href="#DejaVuSans-20" transform="translate(127.099609 0)"/>
     <use xlink:href="#DejaVuSans-20" transform="translate(158.886719 0)"/>
     <use xlink:href="#DejaVuSans-4c" transform="translate(190.673828 0)"/>
     <use xlink:href="#DejaVuSans-75" transform="translate(244.636719 0)"/>
     <use xlink:href="#DejaVuSans-72" transform="translate(308.015625 0)"/>
     <use xlink:href="#DejaVuSans-65" transform="translate(346.878906 0)"/>
    </g>
    <!--  -->
    <g style="fill: #0b0b0b" transform="translate(116.01 120.216562) scale(0.12 -0.12)"/>
    <!-- call · SMS · chat -->
    <g style="fill: #0b0b0b" transform="translate(68.333438 133.653937) scale(0.12 -0.12)">
     <defs>
      <path id="DejaVuSans-63" d="M 3122 3366 
L 3122 2828 
Q 2878 2963 2633 3030 
Q 2388 3097 2138 3097 
Q 1578 3097 1268 2742 
Q 959 2388 959 1747 
Q 959 1106 1268 751 
Q 1578 397 2138 397 
Q 2388 397 2633 464 
Q 2878 531 3122 666 
L 3122 134 
Q 2881 22 2623 -34 
Q 2366 -91 2075 -91 
Q 1284 -91 818 406 
Q 353 903 353 1747 
Q 353 2603 823 3093 
Q 1294 3584 2113 3584 
Q 2378 3584 2631 3529 
Q 2884 3475 3122 3366 
z
" transform="scale(0.015625)"/>
      <path id="DejaVuSans-61" d="M 2194 1759 
Q 1497 1759 1228 1600 
Q 959 1441 959 1056 
Q 959 750 1161 570 
Q 1363 391 1709 391 
Q 2188 391 2477 730 
Q 2766 1069 2766 1631 
L 2766 1759 
L 2194 1759 
z
M 3341 1997 
L 3341 0 
L 2766 0 
L 2766 531 
Q 2569 213 2275 61 
Q 1981 -91 1556 -91 
Q 1019 -91 701 211 
Q 384 513 384 1019 
Q 384 1609 779 1909 
Q 1175 2209 1959 2209 
L 2766 2209 
L 2766 2266 
Q 2766 2663 2505 2880 
Q 2244 3097 1772 3097 
Q 1472 3097 1187 3025 
Q 903 2953 641 2809 
L 641 3341 
Q 956 3463 1253 3523 
Q 1550 3584 1831 3584 
Q 2591 3584 2966 3190 
Q 3341 2797 3341 1997 
z
" transform="scale(0.015625)"/>
      <path id="DejaVuSans-6c" d="M 603 4863 
L 1178 4863 
L 1178 0 
L 603 0 
L 603 4863 
z
" transform="scale(0.015625)"/>
      <path id="DejaVuSans-b7" d="M 684 2619 
L 1344 2619 
L 1344 1825 
L 684 1825 
L 684 2619 
z
" transform="scale(0.015625)"/>
      <path id="DejaVuSans-4d" d="M 628 4666 
L 1569 4666 
L 2759 1491 
L 3956 4666 
L 4897 4666 
L 4897 0 
L 4281 0 
L 4281 4097 
L 3078 897 
L 2444 897 
L 1241 4097 
L 1241 0 
L 628 0 
L 628 4666 
z
" transform="scale(0.015625)"/>
      <path id="DejaVuSans-68" d="M 3513 2113 
L 3513 0 
L 2938 0 
L 2938 2094 
Q 2938 2591 2744 2837 
Q 2550 3084 2163 3084 
Q 1697 3084 1428 2787 
Q 1159 2491 1159 1978 
L 1159 0 
L 581 0 
L 581 4863 
L 1159 4863 
L 1159 2956 
Q 1366 3272 1645 3428 
Q 1925 3584 2291 3584 
Q 2894 3584 3203 3211 
Q 3513 2838 3513 2113 
z
" transform="scale(0.015625)"/>
      <path id="DejaVuSans-74" d="M 1172 4494 
L 1172 3500 
L 2356 3500 
L 2356 3053 
L 1172 3053 
L 1172 1153 
Q 1172 725 1289 603 
Q 1406 481 1766 481 
L 2356 481 
L 2356 0 
L 1766 0 
Q 1100 0 847 248 
Q 594 497 594 1153 
L 594 3053 
L 172 3053 
L 172 3500 
L 594 3500 
L 594 4494 
L 1172 4494 
z
" transform="scale(0.015625)"/>
     </defs>
     <use xlink:href="#DejaVuSans-63"/>
     <use xlink:href="#DejaVuSans-61" transform="translate(54.980469 0)"/>
     <use xlink:href="#DejaVuSans-6c" transform="translate(116.259766 0)"/>
     <use xlink:href="#DejaVuSans-6c" transform="translate(144.042969 0)"/>
     <use xlink:href="#DejaVuSans-20" transform="translate(171.826172 0)"/>
     <use xlink:href="#DejaVuSans-b7" transform="translate(203.613281 0)"/>
     <use xlink:href="#DejaVuSans-20" transform="translate(235.400391 0)"/>
     <use xlink:href="#DejaVuSans-53" transform="translate(267.1875 0)"/>
     <use xlink:href="#DejaVuSans-4d" transform="translate(330.664062 0)"/>
     <use xlink:href="#DejaVuSans-53" transform="translate(416.943359 0)"/>
     <use xlink:href="#DejaVuSans-20" transform="translate(480.419922 0)"/>
     <use xlink:href="#DejaVuSans-b7" transform="translate(512.207031 0)"/>
     <use xlink:href="#DejaVuSans-20" transform="translate(543.994141 0)"/>
     <use xlink:href="#DejaVuSans-63" transform="translate(575.78125 0)"/>
     <use xlink:href="#DejaVuSans-68" transform="translate(630.761719 0)"/>
     <use xlink:href="#DejaVuSans-61" transform="translate(694.140625 0)"/>
     <use xlink:href="#DejaVuSans-74" transform="translate(755.419922 0)"/>
    </g>
    <!-- (AI makes it perfect) -->
    <g style="fill: #0b0b0b" transform="translate(54.695625 147.091312) scale(0.12 -0.12)">
     <defs>
      <path id="DejaVuSans-28" d="M 1984 4856 
Q 1566 4138 1362 3434 
Q 1159 2731 1159 2009 
Q 1159 1288 1364 580 
Q 1569 -128 1984 -844 
L 1484 -844 
Q 1016 -109 783 600 
Q 550 1309 550 2009 
Q 550 2706 781 3412 
Q 1013 4119 1484 4856 
L 1984 4856 
z
" transform="scale(0.015625)"/>
      <path id="DejaVuSans-41" d="M 2188 4044 
L 1331 1722 
L 3047 1722 
L 2188 4044 
z
M 1831 4666 
L 2547 4666 
L 4325 0 
L 3669 0 
L 3244 1197 
L 1141 1197 
L 716 0 
L 50 0 
L 1831 4666 
z
" transform="scale(0.015625)"/>
      <path id="DejaVuSans-49" d="M 628 4666 
L 1259 4666 
L 1259 0 
L 628 0 
L 628 4666 
z
" transform="scale(0.015625)"/>
      <path id="DejaVuSans-6d" d="M 3328 2828 
Q 3544 3216 3844 3400 
Q 4144 3584 4550 3584 
Q 5097 3584 5394 3201 
Q 5691 2819 5691 2113 
L 5691 0 
L 5113 0 
L 5113 2094 
Q 5113 2597 4934 2840 
Q 4756 3084 4391 3084 
Q 3944 3084 3684 2787 
Q 3425 2491 3425 1978 
L 3425 0 
L 2847 0 
L 2847 2094 
Q 2847 2600 2669 2842 
Q 2491 3084 2119 3084 
Q 1678 3084 1418 2786 
Q 1159 2488 1159 1978 
L 1159 0 
L 581 0 
L 581 3500 
L 1159 3500 
L 1159 2956 
Q 1356 3278 1631 3431 
Q 1906 3584 2284 3584 
Q 2666 3584 2933 3390 
Q 3200 3197 3328 2828 
z
" transform="scale(0.015625)"/>
      <path id="DejaVuSans-6b" d="M 581 4863 
L 1159 4863 
L 1159 1991 
L 2875 3500 
L 3609 3500 
L 1753 1863 
L 3688 0 
L 2938 0 
L 1159 1709 
L 1159 0 
L 581 0 
L 581 4863 
z
" transform="scale(0.015625)"/>
      <path id="DejaVuSans-73" d="M 2834 3397 
L 2834 2853 
Q 2591 2978 2328 3040 
Q 2066 3103 1784 3103 
Q 1356 3103 1142 2972 
Q 928 2841 928 2578 
Q 928 2378 1081 2264 
Q 1234 2150 1697 2047 
L 1894 2003 
Q 2506 1872 2764 1633 
Q 3022 1394 3022 966 
Q 3022 478 2636 193 
Q 2250 -91 1575 -91 
Q 1294 -91 989 -36 
Q 684 19 347 128 
L 347 722 
Q 666 556 975 473 
Q 1284 391 1588 391 
Q 1994 391 2212 530 
Q 2431 669 2431 922 
Q 2431 1156 2273 1281 
Q 2116 1406 1581 1522 
L 1381 1569 
Q 847 1681 609 1914 
Q 372 2147 372 2553 
Q 372 3047 722 3315 
Q 1072 3584 1716 3584 
Q 2034 3584 2315 3537 
Q 2597 3491 2834 3397 
z
" transform="scale(0.015625)"/>
      <path id="DejaVuSans-69" d="M 603 3500 
L 1178 3500 
L 1178 0 
L 603 0 
L 603 3500 
z
M 603 4863 
L 1178 4863 
L 1178 4134 
L 603 4134 
L 603 4863 
z
" transform="scale(0.015625)"/>
      <path id="DejaVuSans-70" d="M 1159 525 
L 1159 -1331 
L 581 -1331 
L 581 3500 
L 1159 3500 
L 1159 2969 
Q 1341 3281 1617 3432 
Q 1894 3584 2278 3584 
Q 2916 3584 3314 3078 
Q 3713 2572 3713 1747 
Q 3713 922 3314 415 
Q 2916 -91 2278 -91 
Q 1894 -91 1617 61 
Q 1341 213 1159 525 
z
M 3116 1747 
Q 3116 2381 2855 2742 
Q 2594 3103 2138 3103 
Q 1681 3103 1420 2742 
Q 1159 2381 1159 1747 
Q 1159 1113 1420 752 
Q 1681 391 2138 391 
Q 2594 391 2855 752 
Q 3116 1113 3116 1747 
z
" transform="scale(0.015625)"/>
      <path id="DejaVuSans-66" d="M 2375 4863 
L 2375 4384 
L 1825 4384 
Q 1516 4384 1395 4259 
Q 1275 4134 1275 3809 
L 1275 3500 
L 2222 3500 
L 2222 3053 
L 1275 3053 
L 1275 0 
L 697 0 
L 697 3053 
L 147 3053 
L 147 3500 
L 697 3500 
L 697 3744 
Q 697 4328 969 4595 
Q 1241 4863 1831 4863 
L 2375 4863 
z
" transform="scale(0.015625)"/>
      <path id="DejaVuSans-29" d="M 513 4856 
L 1013 4856 
Q 1481 4119 1714 3412 
Q 1947 2706 1947 2009 
Q 1947 1309 1714 600 
Q 1481 -109 1013 -844 
L 513 -844 
Q 928 -128 1133 580 
Q 1338 1288 1338 2009 
Q 1338 2731 1133 3434 
Q 928 4138 513 4856 
z
" transform="scale(0.015625)"/>
     </defs>
     <use xlink:href="#DejaVuSans-28"/>
     <use xlink:href="#DejaVuSans-41" transform="translate(39.013672 0)"/>
     <use xlink:href="#DejaVuSans-49" transform="translate(107.421875 0)"/>
     <use xlink:href="#DejaVuSans-20" transform="translate(136.914062 0)"/>
     <use xlink:href="#DejaVuSans-6d" transform="translate(168.701172 0)"/>
     <use xlink:href="#DejaVuSans-61" transform="translate(266.113281 0)"/>
     <use xlink:href="#DejaVuSans-6b" transform="translate(327.392578 0)"/>
     <use xlink:href="#DejaVuSans-65" transform="translate(381.677734 0)"/>
     <use xlink:href="#DejaVuSans-73" transform="translate(443.201172 0)"/>
     <use xlink:href="#DejaVuSans-20" transform="translate(495.300781 0)"/>
     <use xlink:href="#DejaVuSans-69" transform="translate(527.087891 0)"/>
     <use xlink:href="#DejaVuSans-74" transform="translate(554.871094 0)"/>
     <use xlink:href="#DejaVuSans-20" transform="translate(594.080078 0)"/>
     <use xlink:href="#DejaVuSans-70" transform="translate(625.867188 0)"/>
     <use xlink:href="#DejaVuSans-65" transform="translate(689.34375 0)"/>
     <use xlink:href="#DejaVuSans-72" transform="translate(750.867188 0)"/>
     <use xlink:href="#DejaVuSans-66" transform="translate(791.980469 0)"/>
     <use xlink:href="#DejaVuSans-65" transform="translate(827.185547 0)"/>
     <use xlink:href="#DejaVuSans-63" transform="translate(888.708984 0)"/>
     <use xlink:href="#DejaVuSans-74" transform="translate(943.689453 0)"/>
     <use xlink:href="#DejaVuSans-29" transform="translate(982.898438 0)"/>
    </g>
   </g>
   <g id="text_2">
    <!-- NOT observed by the bank -->
    <g style="fill: #52514e" transform="translate(35.719687 198.468) scale(0.12 -0.12)">
     <defs>
      <path id="DejaVuSans-4e" d="M 628 4666 
L 1478 4666 
L 3547 763 
L 3547 4666 
L 4159 4666 
L 4159 0 
L 3309 0 
L 1241 3903 
L 1241 0 
L 628 0 
L 628 4666 
z
" transform="scale(0.015625)"/>
      <path id="DejaVuSans-4f" d="M 2522 4238 
Q 1834 4238 1429 3725 
Q 1025 3213 1025 2328 
Q 1025 1447 1429 934 
Q 1834 422 2522 422 
Q 3209 422 3611 934 
Q 4013 1447 4013 2328 
Q 4013 3213 3611 3725 
Q 3209 4238 2522 4238 
z
M 2522 4750 
Q 3503 4750 4090 4092 
Q 4678 3434 4678 2328 
Q 4678 1225 4090 567 
Q 3503 -91 2522 -91 
Q 1538 -91 948 565 
Q 359 1222 359 2328 
Q 359 3434 948 4092 
Q 1538 4750 2522 4750 
z
" transform="scale(0.015625)"/>
      <path id="DejaVuSans-54" d="M -19 4666 
L 3928 4666 
L 3928 4134 
L 2272 4134 
L 2272 0 
L 1638 0 
L 1638 4134 
L -19 4134 
L -19 4666 
z
" transform="scale(0.015625)"/>
      <path id="DejaVuSans-6f" d="M 1959 3097 
Q 1497 3097 1228 2736 
Q 959 2375 959 1747 
Q 959 1119 1226 758 
Q 1494 397 1959 397 
Q 2419 397 2687 759 
Q 2956 1122 2956 1747 
Q 2956 2369 2687 2733 
Q 2419 3097 1959 3097 
z
M 1959 3584 
Q 2709 3584 3137 3096 
Q 3566 2609 3566 1747 
Q 3566 888 3137 398 
Q 2709 -91 1959 -91 
Q 1206 -91 779 398 
Q 353 888 353 1747 
Q 353 2609 779 3096 
Q 1206 3584 1959 3584 
z
" transform="scale(0.015625)"/>
      <path id="DejaVuSans-62" d="M 3116 1747 
Q 3116 2381 2855 2742 
Q 2594 3103 2138 3103 
Q 1681 3103 1420 2742 
Q 1159 2381 1159 1747 
Q 1159 1113 1420 752 
Q 1681 391 2138 391 
Q 2594 391 2855 752 
Q 3116 1113 3116 1747 
z
M 1159 2969 
Q 1341 3281 1617 3432 
Q 1894 3584 2278 3584 
Q 2916 3584 3314 3078 
Q 3713 2572 3713 1747 
Q 3713 922 3314 415 
Q 2916 -91 2278 -91 
Q 1894 -91 1617 61 
Q 1341 213 1159 525 
L 1159 0 
L 581 0 
L 581 4863 
L 1159 4863 
L 1159 2969 
z
" transform="scale(0.015625)"/>
      <path id="DejaVuSans-76" d="M 191 3500 
L 800 3500 
L 1894 563 
L 2988 3500 
L 3597 3500 
L 2284 0 
L 1503 0 
L 191 3500 
z
" transform="scale(0.015625)"/>
      <path id="DejaVuSans-64" d="M 2906 2969 
L 2906 4863 
L 3481 4863 
L 3481 0 
L 2906 0 
L 2906 525 
Q 2725 213 2448 61 
Q 2172 -91 1784 -91 
Q 1150 -91 751 415 
Q 353 922 353 1747 
Q 353 2572 751 3078 
Q 1150 3584 1784 3584 
Q 2172 3584 2448 3432 
Q 2725 3281 2906 2969 
z
M 947 1747 
Q 947 1113 1208 752 
Q 1469 391 1925 391 
Q 2381 391 2643 752 
Q 2906 1113 2906 1747 
Q 2906 2381 2643 2742 
Q 2381 3103 1925 3103 
Q 1469 3103 1208 2742 
Q 947 2381 947 1747 
z
" transform="scale(0.015625)"/>
      <path id="DejaVuSans-79" d="M 2059 -325 
Q 1816 -950 1584 -1140 
Q 1353 -1331 966 -1331 
L 506 -1331 
L 506 -850 
L 844 -850 
Q 1081 -850 1212 -737 
Q 1344 -625 1503 -206 
L 1606 56 
L 191 3500 
L 800 3500 
L 1894 763 
L 2988 3500 
L 3597 3500 
L 2059 -325 
z
" transform="scale(0.015625)"/>
      <path id="DejaVuSans-6e" d="M 3513 2113 
L 3513 0 
L 2938 0 
L 2938 2094 
Q 2938 2591 2744 2837 
Q 2550 3084 2163 3084 
Q 1697 3084 1428 2787 
Q 1159 2491 1159 1978 
L 1159 0 
L 581 0 
L 581 3500 
L 1159 3500 
L 1159 2956 
Q 1366 3272 1645 3428 
Q 1925 3584 2291 3584 
Q 2894 3584 3203 3211 
Q 3513 2838 3513 2113 
z
" transform="scale(0.015625)"/>
     </defs>
     <use xlink:href="#DejaVuSans-4e"/>
     <use xlink:href="#DejaVuSans-4f" transform="translate(74.804688 0)"/>
     <use xlink:href="#DejaVuSans-54" transform="translate(153.515625 0)"/>
     <use xlink:href="#DejaVuSans-20" transform="translate(214.599609 0)"/>
     <use xlink:href="#DejaVuSans-6f" transform="translate(246.386719 0)"/>
     <use xlink:href="#DejaVuSans-62" transform="translate(307.568359 0)"/>
     <use xlink:href="#DejaVuSans-73" transform="translate(371.044922 0)"/>
     <use xlink:href="#DejaVuSans-65" transform="translate(423.144531 0)"/>
     <use xlink:href="#DejaVuSans-72" transform="translate(484.667969 0)"/>
     <use xlink:href="#DejaVuSans-76" transform="translate(525.78125 0)"/>
     <use xlink:href="#DejaVuSans-65" transform="translate(584.960938 0)"/>
     <use xlink:href="#DejaVuSans-64" transform="translate(646.484375 0)"/>
     <use xlink:href="#DejaVuSans-20" transform="translate(709.960938 0)"/>
     <use xlink:href="#DejaVuSans-62" transform="translate(741.748047 0)"/>
     <use xlink:href="#DejaVuSans-79" transform="translate(805.224609 0)"/>
     <use xlink:href="#DejaVuSans-20" transform="translate(864.404297 0)"/>
     <use xlink:href="#DejaVuSans-74" transform="translate(896.191406 0)"/>
     <use xlink:href="#DejaVuSans-68" transform="translate(935.400391 0)"/>
     <use xlink:href="#DejaVuSans-65" transform="translate(998.779297 0)"/>
     <use xlink:href="#DejaVuSans-20" transform="translate(1060.302734 0)"/>
     <use xlink:href="#DejaVuSans-62" transform="translate(1092.089844 0)"/>
     <use xlink:href="#DejaVuSans-61" transform="translate(1155.566406 0)"/>
     <use xlink:href="#DejaVuSans-6e" transform="translate(1216.845703 0)"/>
     <use xlink:href="#DejaVuSans-6b" transform="translate(1280.224609 0)"/>
    </g>
   </g>
   <g id="text_3">
    <!-- S2  Pressure -->
    <g style="fill: #0b0b0b" transform="translate(285.41625 106.779187) scale(0.12 -0.12)">
     <defs>
      <path id="DejaVuSans-32" d="M 1228 531 
L 3431 531 
L 3431 0 
L 469 0 
L 469 531 
Q 828 903 1448 1529 
Q 2069 2156 2228 2338 
Q 2531 2678 2651 2914 
Q 2772 3150 2772 3378 
Q 2772 3750 2511 3984 
Q 2250 4219 1831 4219 
Q 1534 4219 1204 4116 
Q 875 4013 500 3803 
L 500 4441 
Q 881 4594 1212 4672 
Q 1544 4750 1819 4750 
Q 2544 4750 2975 4387 
Q 3406 4025 3406 3419 
Q 3406 3131 3298 2873 
Q 3191 2616 2906 2266 
Q 2828 2175 2409 1742 
Q 1991 1309 1228 531 
z
" transform="scale(0.015625)"/>
      <path id="DejaVuSans-50" d="M 1259 4147 
L 1259 2394 
L 2053 2394 
Q 2494 2394 2734 2622 
Q 2975 2850 2975 3272 
Q 2975 3691 2734 3919 
Q 2494 4147 2053 4147 
L 1259 4147 
z
M 628 4666 
L 2053 4666 
Q 2838 4666 3239 4311 
Q 3641 3956 3641 3272 
Q 3641 2581 3239 2228 
Q 2838 1875 2053 1875 
L 1259 1875 
L 1259 0 
L 628 0 
L 628 4666 
z
" transform="scale(0.015625)"/>
     </defs>
     <use xlink:href="#DejaVuSans-53"/>
     <use xlink:href="#DejaVuSans-32" transform="translate(63.476562 0)"/>
     <use xlink:href="#DejaVuSans-20" transform="translate(127.099609 0)"/>
     <use xlink:href="#DejaVuSans-20" transform="translate(158.886719 0)"/>
     <use xlink:href="#DejaVuSans-50" transform="translate(190.673828 0)"/>
     <use xlink:href="#DejaVuSans-72" transform="translate(249.226562 0)"/>
     <use xlink:href="#DejaVuSans-65" transform="translate(288.089844 0)"/>
     <use xlink:href="#DejaVuSans-73" transform="translate(349.613281 0)"/>
     <use xlink:href="#DejaVuSans-73" transform="translate(401.712891 0)"/>
     <use xlink:href="#DejaVuSans-75" transform="translate(453.8125 0)"/>
     <use xlink:href="#DejaVuSans-72" transform="translate(517.191406 0)"/>
     <use xlink:href="#DejaVuSans-65" transform="translate(556.054688 0)"/>
    </g>
    <!--  -->
    <g style="fill: #0b0b0b" transform="translate(322.47 120.216562) scale(0.12 -0.12)"/>
    <!-- remote access · screen share -->
    <g style="fill: #0b0b0b" transform="translate(234.563437 133.653937) scale(0.12 -0.12)">
     <use xlink:href="#DejaVuSans-72"/>
     <use xlink:href="#DejaVuSans-65" transform="translate(38.863281 0)"/>
     <use xlink:href="#DejaVuSans-6d" transform="translate(100.386719 0)"/>
     <use xlink:href="#DejaVuSans-6f" transform="translate(197.798828 0)"/>
     <use xlink:href="#DejaVuSans-74" transform="translate(258.980469 0)"/>
     <use xlink:href="#DejaVuSans-65" transform="translate(298.189453 0)"/>
     <use xlink:href="#DejaVuSans-20" transform="translate(359.712891 0)"/>
     <use xlink:href="#DejaVuSans-61" transform="translate(391.5 0)"/>
     <use xlink:href="#DejaVuSans-63" transform="translate(452.779297 0)"/>
     <use xlink:href="#DejaVuSans-63" transform="translate(507.759766 0)"/>
     <use xlink:href="#DejaVuSans-65" transform="translate(562.740234 0)"/>
     <use xlink:href="#DejaVuSans-73" transform="translate(624.263672 0)"/>
     <use xlink:href="#DejaVuSans-73" transform="translate(676.363281 0)"/>
     <use xlink:href="#DejaVuSans-20" transform="translate(728.462891 0)"/>
     <use xlink:href="#DejaVuSans-b7" transform="translate(760.25 0)"/>
     <use xlink:href="#DejaVuSans-20" transform="translate(792.037109 0)"/>
     <use xlink:href="#DejaVuSans-73" transform="translate(823.824219 0)"/>
     <use xlink:href="#DejaVuSans-63" transform="translate(875.923828 0)"/>
     <use xlink:href="#DejaVuSans-72" transform="translate(930.904297 0)"/>
     <use xlink:href="#DejaVuSans-65" transform="translate(969.767578 0)"/>
     <use xlink:href="#DejaVuSans-65" transform="translate(1031.291016 0)"/>
     <use xlink:href="#DejaVuSans-6e" transform="translate(1092.814453 0)"/>
     <use xlink:href="#DejaVuSans-20" transform="translate(1156.193359 0)"/>
     <use xlink:href="#DejaVuSans-73" transform="translate(1187.980469 0)"/>
     <use xlink:href="#DejaVuSans-68" transform="translate(1240.080078 0)"/>
     <use xlink:href="#DejaVuSans-61" transform="translate(1303.458984 0)"/>
     <use xlink:href="#DejaVuSans-72" transform="translate(1364.738281 0)"/>
     <use xlink:href="#DejaVuSans-65" transform="translate(1403.601562 0)"/>
    </g>
    <!-- new device · SIM swap · 'fee' -->
    <g style="fill: #0b0b0b" transform="translate(236.035312 147.091312) scale(0.12 -0.12)">
     <defs>
      <path id="DejaVuSans-77" d="M 269 3500 
L 844 3500 
L 1563 769 
L 2278 3500 
L 2956 3500 
L 3675 769 
L 4391 3500 
L 4966 3500 
L 4050 0 
L 3372 0 
L 2619 2869 
L 1863 0 
L 1184 0 
L 269 3500 
z
" transform="scale(0.015625)"/>
      <path id="DejaVuSans-27" d="M 1147 4666 
L 1147 2931 
L 616 2931 
L 616 4666 
L 1147 4666 
z
" transform="scale(0.015625)"/>
     </defs>
     <use xlink:href="#DejaVuSans-6e"/>
     <use xlink:href="#DejaVuSans-65" transform="translate(63.378906 0)"/>
     <use xlink:href="#DejaVuSans-77" transform="translate(124.902344 0)"/>
     <use xlink:href="#DejaVuSans-20" transform="translate(206.689453 0)"/>
     <use xlink:href="#DejaVuSans-64" transform="translate(238.476562 0)"/>
     <use xlink:href="#DejaVuSans-65" transform="translate(301.953125 0)"/>
     <use xlink:href="#DejaVuSans-76" transform="translate(363.476562 0)"/>
     <use xlink:href="#DejaVuSans-69" transform="translate(422.65625 0)"/>
     <use xlink:href="#DejaVuSans-63" transform="translate(450.439453 0)"/>
     <use xlink:href="#DejaVuSans-65" transform="translate(505.419922 0)"/>
     <use xlink:href="#DejaVuSans-20" transform="translate(566.943359 0)"/>
     <use xlink:href="#DejaVuSans-b7" transform="translate(598.730469 0)"/>
     <use xlink:href="#DejaVuSans-20" transform="translate(630.517578 0)"/>
     <use xlink:href="#DejaVuSans-53" transform="translate(662.304688 0)"/>
     <use xlink:href="#DejaVuSans-49" transform="translate(725.78125 0)"/>
     <use xlink:href="#DejaVuSans-4d" transform="translate(755.273438 0)"/>
     <use xlink:href="#DejaVuSans-20" transform="translate(841.552734 0)"/>
     <use xlink:href="#DejaVuSans-73" transform="translate(873.339844 0)"/>
     <use xlink:href="#DejaVuSans-77" transform="translate(925.439453 0)"/>
     <use xlink:href="#DejaVuSans-61" transform="translate(1007.226562 0)"/>
     <use xlink:href="#DejaVuSans-70" transform="translate(1068.505859 0)"/>
     <use xlink:href="#DejaVuSans-20" transform="translate(1131.982422 0)"/>
     <use xlink:href="#DejaVuSans-b7" transform="translate(1163.769531 0)"/>
     <use xlink:href="#DejaVuSans-20" transform="translate(1195.556641 0)"/>
     <use xlink:href="#DejaVuSans-27" transform="translate(1227.34375 0)"/>
     <use xlink:href="#DejaVuSans-66" transform="translate(1254.833984 0)"/>
     <use xlink:href="#DejaVuSans-65" transform="translate(1290.039062 0)"/>
     <use xlink:href="#DejaVuSans-65" transform="translate(1351.5625 0)"/>
     <use xlink:href="#DejaVuSans-27" transform="translate(1413.085938 0)"/>
    </g>
   </g>
   <g id="text_4">
    <!-- session signals -->
    <g style="fill: #52514e" transform="translate(277.480312 198.468) scale(0.12 -0.12)">
     <defs>
      <path id="DejaVuSans-67" d="M 2906 1791 
Q 2906 2416 2648 2759 
Q 2391 3103 1925 3103 
Q 1463 3103 1205 2759 
Q 947 2416 947 1791 
Q 947 1169 1205 825 
Q 1463 481 1925 481 
Q 2391 481 2648 825 
Q 2906 1169 2906 1791 
z
M 3481 434 
Q 3481 -459 3084 -895 
Q 2688 -1331 1869 -1331 
Q 1566 -1331 1297 -1286 
Q 1028 -1241 775 -1147 
L 775 -588 
Q 1028 -725 1275 -790 
Q 1522 -856 1778 -856 
Q 2344 -856 2625 -561 
Q 2906 -266 2906 331 
L 2906 616 
Q 2728 306 2450 153 
Q 2172 0 1784 0 
Q 1141 0 747 490 
Q 353 981 353 1791 
Q 353 2603 747 3093 
Q 1141 3584 1784 3584 
Q 2172 3584 2450 3431 
Q 2728 3278 2906 2969 
L 2906 3500 
L 3481 3500 
L 3481 434 
z
" transform="scale(0.015625)"/>
     </defs>
     <use xlink:href="#DejaVuSans-73"/>
     <use xlink:href="#DejaVuSans-65" transform="translate(52.099609 0)"/>
     <use xlink:href="#DejaVuSans-73" transform="translate(113.623047 0)"/>
     <use xlink:href="#DejaVuSans-73" transform="translate(165.722656 0)"/>
     <use xlink:href="#DejaVuSans-69" transform="translate(217.822266 0)"/>
     <use xlink:href="#DejaVuSans-6f" transform="translate(245.605469 0)"/>
     <use xlink:href="#DejaVuSans-6e" transform="translate(306.787109 0)"/>
     <use xlink:href="#DejaVuSans-20" transform="translate(370.166016 0)"/>
     <use xlink:href="#DejaVuSans-73" transform="translate(401.953125 0)"/>
     <use xlink:href="#DejaVuSans-69" transform="translate(454.052734 0)"/>
     <use xlink:href="#DejaVuSans-67" transform="translate(481.835938 0)"/>
     <use xlink:href="#DejaVuSans-6e" transform="translate(545.3125 0)"/>
     <use xlink:href="#DejaVuSans-61" transform="translate(608.691406 0)"/>
     <use xlink:href="#DejaVuSans-6c" transform="translate(669.970703 0)"/>
     <use xlink:href="#DejaVuSans-73" transform="translate(697.753906 0)"/>
    </g>
   </g>
   <g id="text_5">
    <!-- S3  Collect / pay a new payee -->
    <g style="fill: #0b0b0b" transform="translate(439.86 113.497875) scale(0.12 -0.12)">
     <defs>
      <path id="DejaVuSans-33" d="M 2597 2516 
Q 3050 2419 3304 2112 
Q 3559 1806 3559 1356 
Q 3559 666 3084 287 
Q 2609 -91 1734 -91 
Q 1441 -91 1130 -33 
Q 819 25 488 141 
L 488 750 
Q 750 597 1062 519 
Q 1375 441 1716 441 
Q 2309 441 2620 675 
Q 2931 909 2931 1356 
Q 2931 1769 2642 2001 
Q 2353 2234 1838 2234 
L 1294 2234 
L 1294 2753 
L 1863 2753 
Q 2328 2753 2575 2939 
Q 2822 3125 2822 3475 
Q 2822 3834 2567 4026 
Q 2313 4219 1838 4219 
Q 1578 4219 1281 4162 
Q 984 4106 628 3988 
L 628 4550 
Q 988 4650 1302 4700 
Q 1616 4750 1894 4750 
Q 2613 4750 3031 4423 
Q 3450 4097 3450 3541 
Q 3450 3153 3228 2886 
Q 3006 2619 2597 2516 
z
" transform="scale(0.015625)"/>
      <path id="DejaVuSans-43" d="M 4122 4306 
L 4122 3641 
Q 3803 3938 3442 4084 
Q 3081 4231 2675 4231 
Q 1875 4231 1450 3742 
Q 1025 3253 1025 2328 
Q 1025 1406 1450 917 
Q 1875 428 2675 428 
Q 3081 428 3442 575 
Q 3803 722 4122 1019 
L 4122 359 
Q 3791 134 3420 21 
Q 3050 -91 2638 -91 
Q 1578 -91 968 557 
Q 359 1206 359 2328 
Q 359 3453 968 4101 
Q 1578 4750 2638 4750 
Q 3056 4750 3426 4639 
Q 3797 4528 4122 4306 
z
" transform="scale(0.015625)"/>
      <path id="DejaVuSans-2f" d="M 1625 4666 
L 2156 4666 
L 531 -594 
L 0 -594 
L 1625 4666 
z
" transform="scale(0.015625)"/>
     </defs>
     <use xlink:href="#DejaVuSans-53"/>
     <use xlink:href="#DejaVuSans-33" transform="translate(63.476562 0)"/>
     <use xlink:href="#DejaVuSans-20" transform="translate(127.099609 0)"/>
     <use xlink:href="#DejaVuSans-20" transform="translate(158.886719 0)"/>
     <use xlink:href="#DejaVuSans-43" transform="translate(190.673828 0)"/>
     <use xlink:href="#DejaVuSans-6f" transform="translate(260.498047 0)"/>
     <use xlink:href="#DejaVuSans-6c" transform="translate(321.679688 0)"/>
     <use xlink:href="#DejaVuSans-6c" transform="translate(349.462891 0)"/>
     <use xlink:href="#DejaVuSans-65" transform="translate(377.246094 0)"/>
     <use xlink:href="#DejaVuSans-63" transform="translate(438.769531 0)"/>
     <use xlink:href="#DejaVuSans-74" transform="translate(493.75 0)"/>
     <use xlink:href="#DejaVuSans-20" transform="translate(532.958984 0)"/>
     <use xlink:href="#DejaVuSans-2f" transform="translate(564.746094 0)"/>
     <use xlink:href="#DejaVuSans-20" transform="translate(598.4375 0)"/>
     <use xlink:href="#DejaVuSans-70" transform="translate(630.224609 0)"/>
     <use xlink:href="#DejaVuSans-61" transform="translate(693.701172 0)"/>
     <use xlink:href="#DejaVuSans-79" transform="translate(754.980469 0)"/>
     <use xlink:href="#DejaVuSans-20" transform="translate(814.160156 0)"/>
     <use xlink:href="#DejaVuSans-61" transform="translate(845.947266 0)"/>
     <use xlink:href="#DejaVuSans-20" transform="translate(907.226562 0)"/>
     <use xlink:href="#DejaVuSans-6e" transform="translate(939.013672 0)"/>
     <use xlink:href="#DejaVuSans-65" transform="translate(1002.392578 0)"/>
     <use xlink:href="#DejaVuSans-77" transform="translate(1063.916016 0)"/>
     <use xlink:href="#DejaVuSans-20" transform="translate(1145.703125 0)"/>
     <use xlink:href="#DejaVuSans-70" transform="translate(1177.490234 0)"/>
     <use xlink:href="#DejaVuSans-61" transform="translate(1240.966797 0)"/>
     <use xlink:href="#DejaVuSans-79" transform="translate(1302.246094 0)"/>
     <use xlink:href="#DejaVuSans-65" transform="translate(1361.425781 0)"/>
     <use xlink:href="#DejaVuSans-65" transform="translate(1422.949219 0)"/>
    </g>
    <!--  -->
    <g style="fill: #0b0b0b" transform="translate(528.93 126.93525) scale(0.12 -0.12)"/>
    <!-- the money is about to move -->
    <g style="fill: #0b0b0b" transform="translate(444.10125 140.372625) scale(0.12 -0.12)">
     <use xlink:href="#DejaVuSans-74"/>
     <use xlink:href="#DejaVuSans-68" transform="translate(39.208984 0)"/>
     <use xlink:href="#DejaVuSans-65" transform="translate(102.587891 0)"/>
     <use xlink:href="#DejaVuSans-20" transform="translate(164.111328 0)"/>
     <use xlink:href="#DejaVuSans-6d" transform="translate(195.898438 0)"/>
     <use xlink:href="#DejaVuSans-6f" transform="translate(293.310547 0)"/>
     <use xlink:href="#DejaVuSans-6e" transform="translate(354.492188 0)"/>
     <use xlink:href="#DejaVuSans-65" transform="translate(417.871094 0)"/>
     <use xlink:href="#DejaVuSans-79" transform="translate(479.394531 0)"/>
     <use xlink:href="#DejaVuSans-20" transform="translate(538.574219 0)"/>
     <use xlink:href="#DejaVuSans-69" transform="translate(570.361328 0)"/>
     <use xlink:href="#DejaVuSans-73" transform="translate(598.144531 0)"/>
     <use xlink:href="#DejaVuSans-20" transform="translate(650.244141 0)"/>
     <use xlink:href="#DejaVuSans-61" transform="translate(682.03125 0)"/>
     <use xlink:href="#DejaVuSans-62" transform="translate(743.310547 0)"/>
     <use xlink:href="#DejaVuSans-6f" transform="translate(806.787109 0)"/>
     <use xlink:href="#DejaVuSans-75" transform="translate(867.96875 0)"/>
     <use xlink:href="#DejaVuSans-74" transform="translate(931.347656 0)"/>
     <use xlink:href="#DejaVuSans-20" transform="translate(970.556641 0)"/>
     <use xlink:href="#DejaVuSans-74" transform="translate(1002.34375 0)"/>
     <use xlink:href="#DejaVuSans-6f" transform="translate(1041.552734 0)"/>
     <use xlink:href="#DejaVuSans-20" transform="translate(1102.734375 0)"/>
     <use xlink:href="#DejaVuSans-6d" transform="translate(1134.521484 0)"/>
     <use xlink:href="#DejaVuSans-6f" transform="translate(1231.933594 0)"/>
     <use xlink:href="#DejaVuSans-76" transform="translate(1293.115234 0)"/>
     <use xlink:href="#DejaVuSans-65" transform="translate(1352.294922 0)"/>
    </g>
   </g>
   <g id="text_6">
    <!-- CITADEL ACTS HERE -->
    <g style="fill: #2a78d6" transform="translate(461.642812 198.468) scale(0.12 -0.12)">
     <defs>
      <path id="DejaVuSans-Bold-43" d="M 4288 256 
Q 3956 84 3597 -3 
Q 3238 -91 2847 -91 
Q 1681 -91 1000 561 
Q 319 1213 319 2328 
Q 319 3447 1000 4098 
Q 1681 4750 2847 4750 
Q 3238 4750 3597 4662 
Q 3956 4575 4288 4403 
L 4288 3438 
Q 3953 3666 3628 3772 
Q 3303 3878 2944 3878 
Q 2300 3878 1931 3465 
Q 1563 3053 1563 2328 
Q 1563 1606 1931 1193 
Q 2300 781 2944 781 
Q 3303 781 3628 887 
Q 3953 994 4288 1222 
L 4288 256 
z
" transform="scale(0.015625)"/>
      <path id="DejaVuSans-Bold-49" d="M 588 4666 
L 1791 4666 
L 1791 0 
L 588 0 
L 588 4666 
z
" transform="scale(0.015625)"/>
      <path id="DejaVuSans-Bold-54" d="M 31 4666 
L 4331 4666 
L 4331 3756 
L 2784 3756 
L 2784 0 
L 1581 0 
L 1581 3756 
L 31 3756 
L 31 4666 
z
" transform="scale(0.015625)"/>
      <path id="DejaVuSans-Bold-41" d="M 3419 850 
L 1538 850 
L 1241 0 
L 31 0 
L 1759 4666 
L 3194 4666 
L 4922 0 
L 3713 0 
L 3419 850 
z
M 1838 1716 
L 3116 1716 
L 2478 3572 
L 1838 1716 
z
" transform="scale(0.015625)"/>
      <path id="DejaVuSans-Bold-44" d="M 1791 3756 
L 1791 909 
L 2222 909 
Q 2959 909 3348 1275 
Q 3738 1641 3738 2338 
Q 3738 3031 3350 3393 
Q 2963 3756 2222 3756 
L 1791 3756 
z
M 588 4666 
L 1856 4666 
Q 2919 4666 3439 4514 
Q 3959 4363 4331 4000 
Q 4659 3684 4818 3271 
Q 4978 2859 4978 2338 
Q 4978 1809 4818 1395 
Q 4659 981 4331 666 
Q 3956 303 3431 151 
Q 2906 0 1856 0 
L 588 0 
L 588 4666 
z
" transform="scale(0.015625)"/>
      <path id="DejaVuSans-Bold-45" d="M 588 4666 
L 3834 4666 
L 3834 3756 
L 1791 3756 
L 1791 2888 
L 3713 2888 
L 3713 1978 
L 1791 1978 
L 1791 909 
L 3903 909 
L 3903 0 
L 588 0 
L 588 4666 
z
" transform="scale(0.015625)"/>
      <path id="DejaVuSans-Bold-4c" d="M 588 4666 
L 1791 4666 
L 1791 909 
L 3903 909 
L 3903 0 
L 588 0 
L 588 4666 
z
" transform="scale(0.015625)"/>
      <path id="DejaVuSans-Bold-20" transform="scale(0.015625)"/>
      <path id="DejaVuSans-Bold-53" d="M 3834 4519 
L 3834 3531 
Q 3450 3703 3084 3790 
Q 2719 3878 2394 3878 
Q 1963 3878 1756 3759 
Q 1550 3641 1550 3391 
Q 1550 3203 1689 3098 
Q 1828 2994 2194 2919 
L 2706 2816 
Q 3484 2659 3812 2340 
Q 4141 2022 4141 1434 
Q 4141 663 3683 286 
Q 3225 -91 2284 -91 
Q 1841 -91 1394 -6 
Q 947 78 500 244 
L 500 1259 
Q 947 1022 1364 901 
Q 1781 781 2169 781 
Q 2563 781 2772 912 
Q 2981 1044 2981 1288 
Q 2981 1506 2839 1625 
Q 2697 1744 2272 1838 
L 1806 1941 
Q 1106 2091 782 2419 
Q 459 2747 459 3303 
Q 459 4000 909 4375 
Q 1359 4750 2203 4750 
Q 2588 4750 2994 4692 
Q 3400 4634 3834 4519 
z
" transform="scale(0.015625)"/>
      <path id="DejaVuSans-Bold-48" d="M 588 4666 
L 1791 4666 
L 1791 2888 
L 3566 2888 
L 3566 4666 
L 4769 4666 
L 4769 0 
L 3566 0 
L 3566 1978 
L 1791 1978 
L 1791 0 
L 588 0 
L 588 4666 
z
" transform="scale(0.015625)"/>
      <path id="DejaVuSans-Bold-52" d="M 2297 2597 
Q 2675 2597 2839 2737 
Q 3003 2878 3003 3200 
Q 3003 3519 2839 3656 
Q 2675 3794 2297 3794 
L 1791 3794 
L 1791 2597 
L 2297 2597 
z
M 1791 1766 
L 1791 0 
L 588 0 
L 588 4666 
L 2425 4666 
Q 3347 4666 3776 4356 
Q 4206 4047 4206 3378 
Q 4206 2916 3982 2619 
Q 3759 2322 3309 2181 
Q 3556 2125 3751 1926 
Q 3947 1728 4147 1325 
L 4800 0 
L 3519 0 
L 2950 1159 
Q 2778 1509 2601 1637 
Q 2425 1766 2131 1766 
L 1791 1766 
z
" transform="scale(0.015625)"/>
     </defs>
     <use xlink:href="#DejaVuSans-Bold-43"/>
     <use xlink:href="#DejaVuSans-Bold-49" transform="translate(73.388672 0)"/>
     <use xlink:href="#DejaVuSans-Bold-54" transform="translate(110.595703 0)"/>
     <use xlink:href="#DejaVuSans-Bold-41" transform="translate(171.058594 0)"/>
     <use xlink:href="#DejaVuSans-Bold-44" transform="translate(248.451172 0)"/>
     <use xlink:href="#DejaVuSans-Bold-45" transform="translate(331.458984 0)"/>
     <use xlink:href="#DejaVuSans-Bold-4c" transform="translate(399.769531 0)"/>
     <use xlink:href="#DejaVuSans-Bold-20" transform="translate(463.490234 0)"/>
     <use xlink:href="#DejaVuSans-Bold-41" transform="translate(498.304688 0)"/>
     <use xlink:href="#DejaVuSans-Bold-43" transform="translate(575.697266 0)"/>
     <use xlink:href="#DejaVuSans-Bold-54" transform="translate(649.085938 0)"/>
     <use xlink:href="#DejaVuSans-Bold-53" transform="translate(717.298828 0)"/>
     <use xlink:href="#DejaVuSans-Bold-20" transform="translate(789.320312 0)"/>
     <use xlink:href="#DejaVuSans-Bold-48" transform="translate(824.134766 0)"/>
     <use xlink:href="#DejaVuSans-Bold-45" transform="translate(907.826172 0)"/>
     <use xlink:href="#DejaVuSans-Bold-52" transform="translate(976.136719 0)"/>
     <use xlink:href="#DejaVuSans-Bold-45" transform="translate(1053.138672 0)"/>
    </g>
   </g>
   <g id="text_7">
    <!-- S4  Mule fan-out -->
    <g style="fill: #0b0b0b" transform="translate(686.01 106.779187) scale(0.12 -0.12)">
     <defs>
      <path id="DejaVuSans-34" d="M 2419 4116 
L 825 1625 
L 2419 1625 
L 2419 4116 
z
M 2253 4666 
L 3047 4666 
L 3047 1625 
L 3713 1625 
L 3713 1100 
L 3047 1100 
L 3047 0 
L 2419 0 
L 2419 1100 
L 313 1100 
L 313 1709 
L 2253 4666 
z
" transform="scale(0.015625)"/>
      <path id="DejaVuSans-2d" d="M 313 2009 
L 1997 2009 
L 1997 1497 
L 313 1497 
L 313 2009 
z
" transform="scale(0.015625)"/>
     </defs>
     <use xlink:href="#DejaVuSans-53"/>
     <use xlink:href="#DejaVuSans-34" transform="translate(63.476562 0)"/>
     <use xlink:href="#DejaVuSans-20" transform="translate(127.099609 0)"/>
     <use xlink:href="#DejaVuSans-20" transform="translate(158.886719 0)"/>
     <use xlink:href="#DejaVuSans-4d" transform="translate(190.673828 0)"/>
     <use xlink:href="#DejaVuSans-75" transform="translate(276.953125 0)"/>
     <use xlink:href="#DejaVuSans-6c" transform="translate(340.332031 0)"/>
     <use xlink:href="#DejaVuSans-65" transform="translate(368.115234 0)"/>
     <use xlink:href="#DejaVuSans-20" transform="translate(429.638672 0)"/>
     <use xlink:href="#DejaVuSans-66" transform="translate(461.425781 0)"/>
     <use xlink:href="#DejaVuSans-61" transform="translate(496.630859 0)"/>
     <use xlink:href="#DejaVuSans-6e" transform="translate(557.910156 0)"/>
     <use xlink:href="#DejaVuSans-2d" transform="translate(621.289062 0)"/>
     <use xlink:href="#DejaVuSans-6f" transform="translate(659.248047 0)"/>
     <use xlink:href="#DejaVuSans-75" transform="translate(720.429688 0)"/>
     <use xlink:href="#DejaVuSans-74" transform="translate(783.808594 0)"/>
    </g>
    <!--  -->
    <g style="fill: #0b0b0b" transform="translate(735.39 120.216562) scale(0.12 -0.12)"/>
    <!-- money split to 2-6 accounts -->
    <g style="fill: #0b0b0b" transform="translate(651.728438 133.653937) scale(0.12 -0.12)">
     <defs>
      <path id="DejaVuSans-36" d="M 2113 2584 
Q 1688 2584 1439 2293 
Q 1191 2003 1191 1497 
Q 1191 994 1439 701 
Q 1688 409 2113 409 
Q 2538 409 2786 701 
Q 3034 994 3034 1497 
Q 3034 2003 2786 2293 
Q 2538 2584 2113 2584 
z
M 3366 4563 
L 3366 3988 
Q 3128 4100 2886 4159 
Q 2644 4219 2406 4219 
Q 1781 4219 1451 3797 
Q 1122 3375 1075 2522 
Q 1259 2794 1537 2939 
Q 1816 3084 2150 3084 
Q 2853 3084 3261 2657 
Q 3669 2231 3669 1497 
Q 3669 778 3244 343 
Q 2819 -91 2113 -91 
Q 1303 -91 875 529 
Q 447 1150 447 2328 
Q 447 3434 972 4092 
Q 1497 4750 2381 4750 
Q 2619 4750 2861 4703 
Q 3103 4656 3366 4563 
z
" transform="scale(0.015625)"/>
     </defs>
     <use xlink:href="#DejaVuSans-6d"/>
     <use xlink:href="#DejaVuSans-6f" transform="translate(97.412109 0)"/>
     <use xlink:href="#DejaVuSans-6e" transform="translate(158.59375 0)"/>
     <use xlink:href="#DejaVuSans-65" transform="translate(221.972656 0)"/>
     <use xlink:href="#DejaVuSans-79" transform="translate(283.496094 0)"/>
     <use xlink:href="#DejaVuSans-20" transform="translate(342.675781 0)"/>
     <use xlink:href="#DejaVuSans-73" transform="translate(374.462891 0)"/>
     <use xlink:href="#DejaVuSans-70" transform="translate(426.5625 0)"/>
     <use xlink:href="#DejaVuSans-6c" transform="translate(490.039062 0)"/>
     <use xlink:href="#DejaVuSans-69" transform="translate(517.822266 0)"/>
     <use xlink:href="#DejaVuSans-74" transform="translate(545.605469 0)"/>
     <use xlink:href="#DejaVuSans-20" transform="translate(584.814453 0)"/>
     <use xlink:href="#DejaVuSans-74" transform="translate(616.601562 0)"/>
     <use xlink:href="#DejaVuSans-6f" transform="translate(655.810547 0)"/>
     <use xlink:href="#DejaVuSans-20" transform="translate(716.992188 0)"/>
     <use xlink:href="#DejaVuSans-32" transform="translate(748.779297 0)"/>
     <use xlink:href="#DejaVuSans-2d" transform="translate(812.402344 0)"/>
     <use xlink:href="#DejaVuSans-36" transform="translate(848.486328 0)"/>
     <use xlink:href="#DejaVuSans-20" transform="translate(912.109375 0)"/>
     <use xlink:href="#DejaVuSans-61" transform="translate(943.896484 0)"/>
     <use xlink:href="#DejaVuSans-63" transform="translate(1005.175781 0)"/>
     <use xlink:href="#DejaVuSans-63" transform="translate(1060.15625 0)"/>
     <use xlink:href="#DejaVuSans-6f" transform="translate(1115.136719 0)"/>
     <use xlink:href="#DejaVuSans-75" transform="translate(1176.318359 0)"/>
     <use xlink:href="#DejaVuSans-6e" transform="translate(1239.697266 0)"/>
     <use xlink:href="#DejaVuSans-74" transform="translate(1303.076172 0)"/>
     <use xlink:href="#DejaVuSans-73" transform="translate(1342.285156 0)"/>
    </g>
    <!-- within minutes -->
    <g style="fill: #0b0b0b" transform="translate(690.999375 147.091312) scale(0.12 -0.12)">
     <use xlink:href="#DejaVuSans-77"/>
     <use xlink:href="#DejaVuSans-69" transform="translate(81.787109 0)"/>
     <use xlink:href="#DejaVuSans-74" transform="translate(109.570312 0)"/>
     <use xlink:href="#DejaVuSans-68" transform="translate(148.779297 0)"/>
     <use xlink:href="#DejaVuSans-69" transform="translate(212.158203 0)"/>
     <use xlink:href="#DejaVuSans-6e" transform="translate(239.941406 0)"/>
     <use xlink:href="#DejaVuSans-20" transform="translate(303.320312 0)"/>
     <use xlink:href="#DejaVuSans-6d" transform="translate(335.107422 0)"/>
     <use xlink:href="#DejaVuSans-69" transform="translate(432.519531 0)"/>
     <use xlink:href="#DejaVuSans-6e" transform="translate(460.302734 0)"/>
     <use xlink:href="#DejaVuSans-75" transform="translate(523.681641 0)"/>
     <use xlink:href="#DejaVuSans-74" transform="translate(587.060547 0)"/>
     <use xlink:href="#DejaVuSans-65" transform="translate(626.269531 0)"/>
     <use xlink:href="#DejaVuSans-73" transform="translate(687.792969 0)"/>
    </g>
   </g>
   <g id="text_8">
    <!-- payee-side graph -->
    <g style="fill: #52514e" transform="translate(683.04 198.468) scale(0.12 -0.12)">
     <use xlink:href="#DejaVuSans-70"/>
     <use xlink:href="#DejaVuSans-61" transform="translate(63.476562 0)"/>
     <use xlink:href="#DejaVuSans-79" transform="translate(124.755859 0)"/>
     <use xlink:href="#DejaVuSans-65" transform="translate(183.935547 0)"/>
     <use xlink:href="#DejaVuSans-65" transform="translate(245.458984 0)"/>
     <use xlink:href="#DejaVuSans-2d" transform="translate(306.982422 0)"/>
     <use xlink:href="#DejaVuSans-73" transform="translate(343.066406 0)"/>
     <use xlink:href="#DejaVuSans-69" transform="translate(395.166016 0)"/>
     <use xlink:href="#DejaVuSans-64" transform="translate(422.949219 0)"/>
     <use xlink:href="#DejaVuSans-65" transform="translate(486.425781 0)"/>
     <use xlink:href="#DejaVuSans-20" transform="translate(547.949219 0)"/>
     <use xlink:href="#DejaVuSans-67" transform="translate(579.736328 0)"/>
     <use xlink:href="#DejaVuSans-72" transform="translate(643.212891 0)"/>
     <use xlink:href="#DejaVuSans-61" transform="translate(684.326172 0)"/>
     <use xlink:href="#DejaVuSans-70" transform="translate(745.605469 0)"/>
     <use xlink:href="#DejaVuSans-68" transform="translate(809.082031 0)"/>
    </g>
   </g>
   <g id="text_9">
    <!-- A scam is a sequence, not a transaction -->
    <g style="fill: #0b0b0b" transform="translate(23.94 43.236) scale(0.16 -0.16)">
     <defs>
      <path id="DejaVuSans-Bold-73" d="M 3272 3391 
L 3272 2541 
Q 2913 2691 2578 2766 
Q 2244 2841 1947 2841 
Q 1628 2841 1473 2761 
Q 1319 2681 1319 2516 
Q 1319 2381 1436 2309 
Q 1553 2238 1856 2203 
L 2053 2175 
Q 2913 2066 3209 1816 
Q 3506 1566 3506 1031 
Q 3506 472 3093 190 
Q 2681 -91 1863 -91 
Q 1516 -91 1145 -36 
Q 775 19 384 128 
L 384 978 
Q 719 816 1070 734 
Q 1422 653 1784 653 
Q 2113 653 2278 743 
Q 2444 834 2444 1013 
Q 2444 1163 2330 1236 
Q 2216 1309 1875 1350 
L 1678 1375 
Q 931 1469 631 1722 
Q 331 1975 331 2491 
Q 331 3047 712 3315 
Q 1094 3584 1881 3584 
Q 2191 3584 2531 3537 
Q 2872 3491 3272 3391 
z
" transform="scale(0.015625)"/>
      <path id="DejaVuSans-Bold-63" d="M 3366 3391 
L 3366 2478 
Q 3138 2634 2908 2709 
Q 2678 2784 2431 2784 
Q 1963 2784 1702 2511 
Q 1441 2238 1441 1747 
Q 1441 1256 1702 982 
Q 1963 709 2431 709 
Q 2694 709 2930 787 
Q 3166 866 3366 1019 
L 3366 103 
Q 3103 6 2833 -42 
Q 2563 -91 2291 -91 
Q 1344 -91 809 395 
Q 275 881 275 1747 
Q 275 2613 809 3098 
Q 1344 3584 2291 3584 
Q 2566 3584 2833 3536 
Q 3100 3488 3366 3391 
z
" transform="scale(0.015625)"/>
      <path id="DejaVuSans-Bold-61" d="M 2106 1575 
Q 1756 1575 1579 1456 
Q 1403 1338 1403 1106 
Q 1403 894 1545 773 
Q 1688 653 1941 653 
Q 2256 653 2472 879 
Q 2688 1106 2688 1447 
L 2688 1575 
L 2106 1575 
z
M 3816 1997 
L 3816 0 
L 2688 0 
L 2688 519 
Q 2463 200 2181 54 
Q 1900 -91 1497 -91 
Q 953 -91 614 226 
Q 275 544 275 1050 
Q 275 1666 698 1953 
Q 1122 2241 2028 2241 
L 2688 2241 
L 2688 2328 
Q 2688 2594 2478 2717 
Q 2269 2841 1825 2841 
Q 1466 2841 1156 2769 
Q 847 2697 581 2553 
L 581 3406 
Q 941 3494 1303 3539 
Q 1666 3584 2028 3584 
Q 2975 3584 3395 3211 
Q 3816 2838 3816 1997 
z
" transform="scale(0.015625)"/>
      <path id="DejaVuSans-Bold-6d" d="M 3781 2919 
Q 3994 3244 4286 3414 
Q 4578 3584 4928 3584 
Q 5531 3584 5847 3212 
Q 6163 2841 6163 2131 
L 6163 0 
L 5038 0 
L 5038 1825 
Q 5041 1866 5042 1909 
Q 5044 1953 5044 2034 
Q 5044 2406 4934 2573 
Q 4825 2741 4581 2741 
Q 4263 2741 4089 2478 
Q 3916 2216 3909 1719 
L 3909 0 
L 2784 0 
L 2784 1825 
Q 2784 2406 2684 2573 
Q 2584 2741 2328 2741 
Q 2006 2741 1831 2477 
Q 1656 2213 1656 1722 
L 1656 0 
L 531 0 
L 531 3500 
L 1656 3500 
L 1656 2988 
Q 1863 3284 2130 3434 
Q 2397 3584 2719 3584 
Q 3081 3584 3359 3409 
Q 3638 3234 3781 2919 
z
" transform="scale(0.015625)"/>
      <path id="DejaVuSans-Bold-69" d="M 538 3500 
L 1656 3500 
L 1656 0 
L 538 0 
L 538 3500 
z
M 538 4863 
L 1656 4863 
L 1656 3950 
L 538 3950 
L 538 4863 
z
" transform="scale(0.015625)"/>
      <path id="DejaVuSans-Bold-65" d="M 4031 1759 
L 4031 1441 
L 1416 1441 
Q 1456 1047 1700 850 
Q 1944 653 2381 653 
Q 2734 653 3104 758 
Q 3475 863 3866 1075 
L 3866 213 
Q 3469 63 3072 -14 
Q 2675 -91 2278 -91 
Q 1328 -91 801 392 
Q 275 875 275 1747 
Q 275 2603 792 3093 
Q 1309 3584 2216 3584 
Q 3041 3584 3536 3087 
Q 4031 2591 4031 1759 
z
M 2881 2131 
Q 2881 2450 2695 2645 
Q 2509 2841 2209 2841 
Q 1884 2841 1681 2658 
Q 1478 2475 1428 2131 
L 2881 2131 
z
" transform="scale(0.015625)"/>
      <path id="DejaVuSans-Bold-71" d="M 2181 2772 
Q 1825 2772 1636 2509 
Q 1447 2247 1447 1747 
Q 1447 1247 1636 984 
Q 1825 722 2181 722 
Q 2541 722 2730 984 
Q 2919 1247 2919 1747 
Q 2919 2247 2730 2509 
Q 2541 2772 2181 2772 
z
M 2919 506 
Q 2688 197 2409 53 
Q 2131 -91 1766 -91 
Q 1119 -91 703 423 
Q 288 938 288 1747 
Q 288 2556 703 3067 
Q 1119 3578 1766 3578 
Q 2131 3578 2409 3434 
Q 2688 3291 2919 2981 
L 2919 3500 
L 4044 3500 
L 4044 -1331 
L 2919 -1331 
L 2919 506 
z
" transform="scale(0.015625)"/>
      <path id="DejaVuSans-Bold-75" d="M 500 1363 
L 500 3500 
L 1625 3500 
L 1625 3150 
Q 1625 2866 1622 2436 
Q 1619 2006 1619 1863 
Q 1619 1441 1641 1255 
Q 1663 1069 1716 984 
Q 1784 875 1895 815 
Q 2006 756 2150 756 
Q 2500 756 2700 1025 
Q 2900 1294 2900 1772 
L 2900 3500 
L 4019 3500 
L 4019 0 
L 2900 0 
L 2900 506 
Q 2647 200 2364 54 
Q 2081 -91 1741 -91 
Q 1134 -91 817 281 
Q 500 653 500 1363 
z
" transform="scale(0.015625)"/>
      <path id="DejaVuSans-Bold-6e" d="M 4056 2131 
L 4056 0 
L 2931 0 
L 2931 347 
L 2931 1631 
Q 2931 2084 2911 2256 
Q 2891 2428 2841 2509 
Q 2775 2619 2662 2680 
Q 2550 2741 2406 2741 
Q 2056 2741 1856 2470 
Q 1656 2200 1656 1722 
L 1656 0 
L 538 0 
L 538 3500 
L 1656 3500 
L 1656 2988 
Q 1909 3294 2193 3439 
Q 2478 3584 2822 3584 
Q 3428 3584 3742 3212 
Q 4056 2841 4056 2131 
z
" transform="scale(0.015625)"/>
      <path id="DejaVuSans-Bold-2c" d="M 653 1209 
L 1778 1209 
L 1778 256 
L 1006 -909 
L 341 -909 
L 653 256 
L 653 1209 
z
" transform="scale(0.015625)"/>
      <path id="DejaVuSans-Bold-6f" d="M 2203 2784 
Q 1831 2784 1636 2517 
Q 1441 2250 1441 1747 
Q 1441 1244 1636 976 
Q 1831 709 2203 709 
Q 2569 709 2762 976 
Q 2956 1244 2956 1747 
Q 2956 2250 2762 2517 
Q 2569 2784 2203 2784 
z
M 2203 3584 
Q 3106 3584 3614 3096 
Q 4122 2609 4122 1747 
Q 4122 884 3614 396 
Q 3106 -91 2203 -91 
Q 1297 -91 786 396 
Q 275 884 275 1747 
Q 275 2609 786 3096 
Q 1297 3584 2203 3584 
z
" transform="scale(0.015625)"/>
      <path id="DejaVuSans-Bold-74" d="M 1759 4494 
L 1759 3500 
L 2913 3500 
L 2913 2700 
L 1759 2700 
L 1759 1216 
Q 1759 972 1856 886 
Q 1953 800 2241 800 
L 2816 800 
L 2816 0 
L 1856 0 
Q 1194 0 917 276 
Q 641 553 641 1216 
L 641 2700 
L 84 2700 
L 84 3500 
L 641 3500 
L 641 4494 
L 1759 4494 
z
" transform="scale(0.015625)"/>
      <path id="DejaVuSans-Bold-72" d="M 3138 2547 
Q 2991 2616 2845 2648 
Q 2700 2681 2553 2681 
Q 2122 2681 1889 2404 
Q 1656 2128 1656 1613 
L 1656 0 
L 538 0 
L 538 3500 
L 1656 3500 
L 1656 2925 
Q 1872 3269 2151 3426 
Q 2431 3584 2822 3584 
Q 2878 3584 2943 3579 
Q 3009 3575 3134 3559 
L 3138 2547 
z
" transform="scale(0.015625)"/>
     </defs>
     <use xlink:href="#DejaVuSans-Bold-41"/>
     <use xlink:href="#DejaVuSans-Bold-20" transform="translate(77.392578 0)"/>
     <use xlink:href="#DejaVuSans-Bold-73" transform="translate(112.207031 0)"/>
     <use xlink:href="#DejaVuSans-Bold-63" transform="translate(171.728516 0)"/>
     <use xlink:href="#DejaVuSans-Bold-61" transform="translate(231.005859 0)"/>
     <use xlink:href="#DejaVuSans-Bold-6d" transform="translate(298.486328 0)"/>
     <use xlink:href="#DejaVuSans-Bold-20" transform="translate(402.685547 0)"/>
     <use xlink:href="#DejaVuSans-Bold-69" transform="translate(437.5 0)"/>
     <use xlink:href="#DejaVuSans-Bold-73" transform="translate(471.777344 0)"/>
     <use xlink:href="#DejaVuSans-Bold-20" transform="translate(531.298828 0)"/>
     <use xlink:href="#DejaVuSans-Bold-61" transform="translate(566.113281 0)"/>
     <use xlink:href="#DejaVuSans-Bold-20" transform="translate(633.59375 0)"/>
     <use xlink:href="#DejaVuSans-Bold-73" transform="translate(668.408203 0)"/>
     <use xlink:href="#DejaVuSans-Bold-65" transform="translate(727.929688 0)"/>
     <use xlink:href="#DejaVuSans-Bold-71" transform="translate(795.751953 0)"/>
     <use xlink:href="#DejaVuSans-Bold-75" transform="translate(867.333984 0)"/>
     <use xlink:href="#DejaVuSans-Bold-65" transform="translate(938.525391 0)"/>
     <use xlink:href="#DejaVuSans-Bold-6e" transform="translate(1006.347656 0)"/>
     <use xlink:href="#DejaVuSans-Bold-63" transform="translate(1077.539062 0)"/>
     <use xlink:href="#DejaVuSans-Bold-65" transform="translate(1136.816406 0)"/>
     <use xlink:href="#DejaVuSans-Bold-2c" transform="translate(1204.638672 0)"/>
     <use xlink:href="#DejaVuSans-Bold-20" transform="translate(1242.626953 0)"/>
     <use xlink:href="#DejaVuSans-Bold-6e" transform="translate(1277.441406 0)"/>
     <use xlink:href="#DejaVuSans-Bold-6f" transform="translate(1348.632812 0)"/>
     <use xlink:href="#DejaVuSans-Bold-74" transform="translate(1417.333984 0)"/>
     <use xlink:href="#DejaVuSans-Bold-20" transform="translate(1465.136719 0)"/>
     <use xlink:href="#DejaVuSans-Bold-61" transform="translate(1499.951172 0)"/>
     <use xlink:href="#DejaVuSans-Bold-20" transform="translate(1567.431641 0)"/>
     <use xlink:href="#DejaVuSans-Bold-74" transform="translate(1602.246094 0)"/>
     <use xlink:href="#DejaVuSans-Bold-72" transform="translate(1650.048828 0)"/>
     <use xlink:href="#DejaVuSans-Bold-61" transform="translate(1699.365234 0)"/>
     <use xlink:href="#DejaVuSans-Bold-6e" transform="translate(1766.845703 0)"/>
     <use xlink:href="#DejaVuSans-Bold-73" transform="translate(1838.037109 0)"/>
     <use xlink:href="#DejaVuSans-Bold-61" transform="translate(1897.558594 0)"/>
     <use xlink:href="#DejaVuSans-Bold-63" transform="translate(1965.039062 0)"/>
     <use xlink:href="#DejaVuSans-Bold-74" transform="translate(2024.316406 0)"/>
     <use xlink:href="#DejaVuSans-Bold-69" transform="translate(2072.119141 0)"/>
     <use xlink:href="#DejaVuSans-Bold-6f" transform="translate(2106.396484 0)"/>
     <use xlink:href="#DejaVuSans-Bold-6e" transform="translate(2175.097656 0)"/>
    </g>
   </g>
   <g id="text_10">
    <!-- Customer sees: -->
    <g style="fill: #0b0b0b" transform="translate(488.061211 249.205641) scale(0.105 -0.105)">
     <defs>
      <path id="DejaVuSans-3a" d="M 750 794 
L 1409 794 
L 1409 0 
L 750 0 
L 750 794 
z
M 750 3309 
L 1409 3309 
L 1409 2516 
L 750 2516 
L 750 3309 
z
" transform="scale(0.015625)"/>
     </defs>
     <use xlink:href="#DejaVuSans-43"/>
     <use xlink:href="#DejaVuSans-75" transform="translate(69.824219 0)"/>
     <use xlink:href="#DejaVuSans-73" transform="translate(133.203125 0)"/>
     <use xlink:href="#DejaVuSans-74" transform="translate(185.302734 0)"/>
     <use xlink:href="#DejaVuSans-6f" transform="translate(224.511719 0)"/>
     <use xlink:href="#DejaVuSans-6d" transform="translate(285.693359 0)"/>
     <use xlink:href="#DejaVuSans-65" transform="translate(383.105469 0)"/>
     <use xlink:href="#DejaVuSans-72" transform="translate(444.628906 0)"/>
     <use xlink:href="#DejaVuSans-20" transform="translate(485.742188 0)"/>
     <use xlink:href="#DejaVuSans-73" transform="translate(517.529297 0)"/>
     <use xlink:href="#DejaVuSans-65" transform="translate(569.628906 0)"/>
     <use xlink:href="#DejaVuSans-65" transform="translate(631.152344 0)"/>
     <use xlink:href="#DejaVuSans-73" transform="translate(692.675781 0)"/>
     <use xlink:href="#DejaVuSans-3a" transform="translate(744.775391 0)"/>
    </g>
    <!-- “Stop. This looks like a scam pattern.” -->
    <g style="fill: #0b0b0b" transform="translate(428.362148 260.963344) scale(0.105 -0.105)">
     <defs>
      <path id="DejaVuSans-201c" d="M 1203 3128 
L 544 3128 
L 544 3669 
L 1056 4666 
L 1459 4666 
L 1203 3669 
L 1203 3128 
z
M 2484 3128 
L 1825 3128 
L 1825 3669 
L 2338 4666 
L 2741 4666 
L 2484 3669 
L 2484 3128 
z
" transform="scale(0.015625)"/>
      <path id="DejaVuSans-2e" d="M 684 794 
L 1344 794 
L 1344 0 
L 684 0 
L 684 794 
z
" transform="scale(0.015625)"/>
      <path id="DejaVuSans-201d" d="M 800 4666 
L 1459 4666 
L 1459 4128 
L 947 3128 
L 544 3128 
L 800 4128 
L 800 4666 
z
M 2081 4666 
L 2741 4666 
L 2741 4128 
L 2228 3128 
L 1825 3128 
L 2081 4128 
L 2081 4666 
z
" transform="scale(0.015625)"/>
     </defs>
     <use xlink:href="#DejaVuSans-201c"/>
     <use xlink:href="#DejaVuSans-53" transform="translate(51.806641 0)"/>
     <use xlink:href="#DejaVuSans-74" transform="translate(115.283203 0)"/>
     <use xlink:href="#DejaVuSans-6f" transform="translate(154.492188 0)"/>
     <use xlink:href="#DejaVuSans-70" transform="translate(215.673828 0)"/>
     <use xlink:href="#DejaVuSans-2e" transform="translate(279.150391 0)"/>
     <use xlink:href="#DejaVuSans-20" transform="translate(310.9375 0)"/>
     <use xlink:href="#DejaVuSans-54" transform="translate(342.724609 0)"/>
     <use xlink:href="#DejaVuSans-68" transform="translate(403.808594 0)"/>
     <use xlink:href="#DejaVuSans-69" transform="translate(467.1875 0)"/>
     <use xlink:href="#DejaVuSans-73" transform="translate(494.970703 0)"/>
     <use xlink:href="#DejaVuSans-20" transform="translate(547.070312 0)"/>
     <use xlink:href="#DejaVuSans-6c" transform="translate(578.857422 0)"/>
     <use xlink:href="#DejaVuSans-6f" transform="translate(606.640625 0)"/>
     <use xlink:href="#DejaVuSans-6f" transform="translate(667.822266 0)"/>
     <use xlink:href="#DejaVuSans-6b" transform="translate(729.003906 0)"/>
     <use xlink:href="#DejaVuSans-73" transform="translate(786.914062 0)"/>
     <use xlink:href="#DejaVuSans-20" transform="translate(839.013672 0)"/>
     <use xlink:href="#DejaVuSans-6c" transform="translate(870.800781 0)"/>
     <use xlink:href="#DejaVuSans-69" transform="translate(898.583984 0)"/>
     <use xlink:href="#DejaVuSans-6b" transform="translate(926.367188 0)"/>
     <use xlink:href="#DejaVuSans-65" transform="translate(980.652344 0)"/>
     <use xlink:href="#DejaVuSans-20" transform="translate(1042.175781 0)"/>
     <use xlink:href="#DejaVuSans-61" transform="translate(1073.962891 0)"/>
     <use xlink:href="#DejaVuSans-20" transform="translate(1135.242188 0)"/>
     <use xlink:href="#DejaVuSans-73" transform="translate(1167.029297 0)"/>
     <use xlink:href="#DejaVuSans-63" transform="translate(1219.128906 0)"/>
     <use xlink:href="#DejaVuSans-61" transform="translate(1274.109375 0)"/>
     <use xlink:href="#DejaVuSans-6d" transform="translate(1335.388672 0)"/>
     <use xlink:href="#DejaVuSans-20" transform="translate(1432.800781 0)"/>
     <use xlink:href="#DejaVuSans-70" transform="translate(1464.587891 0)"/>
     <use xlink:href="#DejaVuSans-61" transform="translate(1528.064453 0)"/>
     <use xlink:href="#DejaVuSans-74" transform="translate(1589.34375 0)"/>
     <use xlink:href="#DejaVuSans-74" transform="translate(1628.552734 0)"/>
     <use xlink:href="#DejaVuSans-65" transform="translate(1667.761719 0)"/>
     <use xlink:href="#DejaVuSans-72" transform="translate(1729.285156 0)"/>
     <use xlink:href="#DejaVuSans-6e" transform="translate(1768.648438 0)"/>
     <use xlink:href="#DejaVuSans-2e" transform="translate(1832.027344 0)"/>
     <use xlink:href="#DejaVuSans-201d" transform="translate(1863.814453 0)"/>
    </g>
    <!-- + reasons, cooling-off, call your bank -->
    <g style="fill: #0b0b0b" transform="translate(430.820625 272.721047) scale(0.105 -0.105)">
     <defs>
      <path id="DejaVuSans-2b" d="M 2944 4013 
L 2944 2272 
L 4684 2272 
L 4684 1741 
L 2944 1741 
L 2944 0 
L 2419 0 
L 2419 1741 
L 678 1741 
L 678 2272 
L 2419 2272 
L 2419 4013 
L 2944 4013 
z
" transform="scale(0.015625)"/>
      <path id="DejaVuSans-2c" d="M 750 794 
L 1409 794 
L 1409 256 
L 897 -744 
L 494 -744 
L 750 256 
L 750 794 
z
" transform="scale(0.015625)"/>
     </defs>
     <use xlink:href="#DejaVuSans-2b"/>
     <use xlink:href="#DejaVuSans-20" transform="translate(83.789062 0)"/>
     <use xlink:href="#DejaVuSans-72" transform="translate(115.576172 0)"/>
     <use xlink:href="#DejaVuSans-65" transform="translate(154.439453 0)"/>
     <use xlink:href="#DejaVuSans-61" transform="translate(215.962891 0)"/>
     <use xlink:href="#DejaVuSans-73" transform="translate(277.242188 0)"/>
     <use xlink:href="#DejaVuSans-6f" transform="translate(329.341797 0)"/>
     <use xlink:href="#DejaVuSans-6e" transform="translate(390.523438 0)"/>
     <use xlink:href="#DejaVuSans-73" transform="translate(453.902344 0)"/>
     <use xlink:href="#DejaVuSans-2c" transform="translate(506.001953 0)"/>
     <use xlink:href="#DejaVuSans-20" transform="translate(537.789062 0)"/>
     <use xlink:href="#DejaVuSans-63" transform="translate(569.576172 0)"/>
     <use xlink:href="#DejaVuSans-6f" transform="translate(624.556641 0)"/>
     <use xlink:href="#DejaVuSans-6f" transform="translate(685.738281 0)"/>
     <use xlink:href="#DejaVuSans-6c" transform="translate(746.919922 0)"/>
     <use xlink:href="#DejaVuSans-69" transform="translate(774.703125 0)"/>
     <use xlink:href="#DejaVuSans-6e" transform="translate(802.486328 0)"/>
     <use xlink:href="#DejaVuSans-67" transform="translate(865.865234 0)"/>
     <use xlink:href="#DejaVuSans-2d" transform="translate(929.341797 0)"/>
     <use xlink:href="#DejaVuSans-6f" transform="translate(967.300781 0)"/>
     <use xlink:href="#DejaVuSans-66" transform="translate(1028.482422 0)"/>
     <use xlink:href="#DejaVuSans-66" transform="translate(1063.6875 0)"/>
     <use xlink:href="#DejaVuSans-2c" transform="translate(1098.892578 0)"/>
     <use xlink:href="#DejaVuSans-20" transform="translate(1130.679688 0)"/>
     <use xlink:href="#DejaVuSans-63" transform="translate(1162.466797 0)"/>
     <use xlink:href="#DejaVuSans-61" transform="translate(1217.447266 0)"/>
     <use xlink:href="#DejaVuSans-6c" transform="translate(1278.726562 0)"/>
     <use xlink:href="#DejaVuSans-6c" transform="translate(1306.509766 0)"/>
     <use xlink:href="#DejaVuSans-20" transform="translate(1334.292969 0)"/>
     <use xlink:href="#DejaVuSans-79" transform="translate(1366.080078 0)"/>
     <use xlink:href="#DejaVuSans-6f" transform="translate(1425.259766 0)"/>
     <use xlink:href="#DejaVuSans-75" transform="translate(1486.441406 0)"/>
     <use xlink:href="#DejaVuSans-72" transform="translate(1549.820312 0)"/>
     <use xlink:href="#DejaVuSans-20" transform="translate(1590.933594 0)"/>
     <use xlink:href="#DejaVuSans-62" transform="translate(1622.720703 0)"/>
     <use xlink:href="#DejaVuSans-61" transform="translate(1686.197266 0)"/>
     <use xlink:href="#DejaVuSans-6e" transform="translate(1747.476562 0)"/>
     <use xlink:href="#DejaVuSans-6b" transform="translate(1810.855469 0)"/>
    </g>
   </g>
   <g id="text_11">
    <!-- Lures get better with AI. The payment behaviour at -->
    <g style="fill: #52514e" transform="translate(23.94 259.874625) scale(0.12 -0.12)">
     <use xlink:href="#DejaVuSans-4c"/>
     <use xlink:href="#DejaVuSans-75" transform="translate(53.962891 0)"/>
     <use xlink:href="#DejaVuSans-72" transform="translate(117.341797 0)"/>
     <use xlink:href="#DejaVuSans-65" transform="translate(156.205078 0)"/>
     <use xlink:href="#DejaVuSans-73" transform="translate(217.728516 0)"/>
     <use xlink:href="#DejaVuSans-20" transform="translate(269.828125 0)"/>
     <use xlink:href="#DejaVuSans-67" transform="translate(301.615234 0)"/>
     <use xlink:href="#DejaVuSans-65" transform="translate(365.091797 0)"/>
     <use xlink:href="#DejaVuSans-74" transform="translate(426.615234 0)"/>
     <use xlink:href="#DejaVuSans-20" transform="translate(465.824219 0)"/>
     <use xlink:href="#DejaVuSans-62" transform="translate(497.611328 0)"/>
     <use xlink:href="#DejaVuSans-65" transform="translate(561.087891 0)"/>
     <use xlink:href="#DejaVuSans-74" transform="translate(622.611328 0)"/>
     <use xlink:href="#DejaVuSans-74" transform="translate(661.820312 0)"/>
     <use xlink:href="#DejaVuSans-65" transform="translate(701.029297 0)"/>
     <use xlink:href="#DejaVuSans-72" transform="translate(762.552734 0)"/>
     <use xlink:href="#DejaVuSans-20" transform="translate(803.666016 0)"/>
     <use xlink:href="#DejaVuSans-77" transform="translate(835.453125 0)"/>
     <use xlink:href="#DejaVuSans-69" transform="translate(917.240234 0)"/>
     <use xlink:href="#DejaVuSans-74" transform="translate(945.023438 0)"/>
     <use xlink:href="#DejaVuSans-68" transform="translate(984.232422 0)"/>
     <use xlink:href="#DejaVuSans-20" transform="translate(1047.611328 0)"/>
     <use xlink:href="#DejaVuSans-41" transform="translate(1079.398438 0)"/>
     <use xlink:href="#DejaVuSans-49" transform="translate(1147.806641 0)"/>
     <use xlink:href="#DejaVuSans-2e" transform="translate(1177.298828 0)"/>
     <use xlink:href="#DejaVuSans-20" transform="translate(1209.085938 0)"/>
     <use xlink:href="#DejaVuSans-54" transform="translate(1240.873047 0)"/>
     <use xlink:href="#DejaVuSans-68" transform="translate(1301.957031 0)"/>
     <use xlink:href="#DejaVuSans-65" transform="translate(1365.335938 0)"/>
     <use xlink:href="#DejaVuSans-20" transform="translate(1426.859375 0)"/>
     <use xlink:href="#DejaVuSans-70" transform="translate(1458.646484 0)"/>
     <use xlink:href="#DejaVuSans-61" transform="translate(1522.123047 0)"/>
     <use xlink:href="#DejaVuSans-79" transform="translate(1583.402344 0)"/>
     <use xlink:href="#DejaVuSans-6d" transform="translate(1642.582031 0)"/>
     <use xlink:href="#DejaVuSans-65" transform="translate(1739.994141 0)"/>
     <use xlink:href="#DejaVuSans-6e" transform="translate(1801.517578 0)"/>
     <use xlink:href="#DejaVuSans-74" transform="translate(1864.896484 0)"/>
     <use xlink:href="#DejaVuSans-20" transform="translate(1904.105469 0)"/>
     <use xlink:href="#DejaVuSans-62" transform="translate(1935.892578 0)"/>
     <use xlink:href="#DejaVuSans-65" transform="translate(1999.369141 0)"/>
     <use xlink:href="#DejaVuSans-68" transform="translate(2060.892578 0)"/>
     <use xlink:href="#DejaVuSans-61" transform="translate(2124.271484 0)"/>
     <use xlink:href="#DejaVuSans-76" transform="translate(2185.550781 0)"/>
     <use xlink:href="#DejaVuSans-69" transform="translate(2244.730469 0)"/>
     <use xlink:href="#DejaVuSans-6f" transform="translate(2272.513672 0)"/>
     <use xlink:href="#DejaVuSans-75" transform="translate(2333.695312 0)"/>
     <use xlink:href="#DejaVuSans-72" transform="translate(2397.074219 0)"/>
     <use xlink:href="#DejaVuSans-20" transform="translate(2438.1875 0)"/>
     <use xlink:href="#DejaVuSans-61" transform="translate(2469.974609 0)"/>
     <use xlink:href="#DejaVuSans-74" transform="translate(2531.253906 0)"/>
    </g>
    <!-- the moment of harm still shows. -->
    <g style="fill: #52514e" transform="translate(23.94 273.312) scale(0.12 -0.12)">
     <use xlink:href="#DejaVuSans-74"/>
     <use xlink:href="#DejaVuSans-68" transform="translate(39.208984 0)"/>
     <use xlink:href="#DejaVuSans-65" transform="translate(102.587891 0)"/>
     <use xlink:href="#DejaVuSans-20" transform="translate(164.111328 0)"/>
     <use xlink:href="#DejaVuSans-6d" transform="translate(195.898438 0)"/>
     <use xlink:href="#DejaVuSans-6f" transform="translate(293.310547 0)"/>
     <use xlink:href="#DejaVuSans-6d" transform="translate(354.492188 0)"/>
     <use xlink:href="#DejaVuSans-65" transform="translate(451.904297 0)"/>
     <use xlink:href="#DejaVuSans-6e" transform="translate(513.427734 0)"/>
     <use xlink:href="#DejaVuSans-74" transform="translate(576.806641 0)"/>
     <use xlink:href="#DejaVuSans-20" transform="translate(616.015625 0)"/>
     <use xlink:href="#DejaVuSans-6f" transform="translate(647.802734 0)"/>
     <use xlink:href="#DejaVuSans-66" transform="translate(708.984375 0)"/>
     <use xlink:href="#DejaVuSans-20" transform="translate(744.189453 0)"/>
     <use xlink:href="#DejaVuSans-68" transform="translate(775.976562 0)"/>
     <use xlink:href="#DejaVuSans-61" transform="translate(839.355469 0)"/>
     <use xlink:href="#DejaVuSans-72" transform="translate(900.634766 0)"/>
     <use xlink:href="#DejaVuSans-6d" transform="translate(939.998047 0)"/>
     <use xlink:href="#DejaVuSans-20" transform="translate(1037.410156 0)"/>
     <use xlink:href="#DejaVuSans-73" transform="translate(1069.197266 0)"/>
     <use xlink:href="#DejaVuSans-74" transform="translate(1121.296875 0)"/>
     <use xlink:href="#DejaVuSans-69" transform="translate(1160.505859 0)"/>
     <use xlink:href="#DejaVuSans-6c" transform="translate(1188.289062 0)"/>
     <use xlink:href="#DejaVuSans-6c" transform="translate(1216.072266 0)"/>
     <use xlink:href="#DejaVuSans-20" transform="translate(1243.855469 0)"/>
     <use xlink:href="#DejaVuSans-73" transform="translate(1275.642578 0)"/>
     <use xlink:href="#DejaVuSans-68" transform="translate(1327.742188 0)"/>
     <use xlink:href="#DejaVuSans-6f" transform="translate(1391.121094 0)"/>
     <use xlink:href="#DejaVuSans-77" transform="translate(1452.302734 0)"/>
     <use xlink:href="#DejaVuSans-73" transform="translate(1534.089844 0)"/>
     <use xlink:href="#DejaVuSans-2e" transform="translate(1586.189453 0)"/>
    </g>
   </g>
  </g>
 </g>
 <defs>
  <clipPath id="pbcf8010616">
   <rect x="7.2" y="7.2" width="837" height="299.376"/>
  </clipPath>
 </defs>
</svg>
